<svg width="23" height="22" viewBox="0 0 23 22" fill="none" xmlns="http://www.w3.org/2000/svg">
<path d="M11.3852 0C8.44625 0 8.07998 0.0141911 6.92982 0.0628465C5.77494 0.119611 4.99375 0.29869 4.30446 0.566294C3.58305 0.838643 2.92972 1.26505 2.39001 1.81579C1.83773 2.35424 1.41109 3.00794 1.14051 3.73024C0.872909 4.41953 0.69383 5.20072 0.637065 6.3556C0.585031 7.50644 0.574219 7.87203 0.574219 10.8109C0.574219 13.7499 0.58841 14.1161 0.637065 15.2663C0.69383 16.4178 0.872909 17.2024 1.14051 17.8917C1.41286 18.6131 1.83927 19.2664 2.39001 19.8061C2.92846 20.3584 3.58216 20.785 4.30446 21.0556C4.99375 21.3198 5.77831 21.5023 6.92982 21.559C8.08066 21.6111 8.44625 21.6219 11.3852 21.6219C14.3241 21.6219 14.6904 21.6077 15.8405 21.559C16.992 21.5023 17.7766 21.3192 18.4659 21.0556C19.1873 20.7833 19.8406 20.3568 20.3803 19.8061C20.9333 19.2682 21.3601 18.6144 21.6298 17.8917C21.894 17.2024 22.0765 16.4178 22.1333 15.2663C22.1853 14.1155 22.1961 13.7499 22.1961 10.8109C22.1961 7.87203 22.1819 7.50576 22.1333 6.3556C22.0765 5.20409 21.8934 4.41547 21.6298 3.73024C21.3575 3.00883 20.9311 2.3555 20.3803 1.81579C19.8425 1.2628 19.1886 0.836047 18.4659 0.566294C17.7766 0.29869 16.992 0.119611 15.8405 0.0628465C14.6897 0.0108123 14.3241 0 11.3852 0ZM11.3852 1.94621C14.2714 1.94621 14.616 1.96041 15.7567 2.00906C16.8089 2.05839 17.3819 2.23409 17.7624 2.38276C18.2327 2.55638 18.6585 2.83272 19.0085 3.19166C19.3668 3.54024 19.6421 3.96497 19.814 4.43439C19.9627 4.81485 20.1384 5.3879 20.1877 6.44008C20.2364 7.58077 20.2506 7.92609 20.2506 10.8116C20.2506 13.6972 20.2364 14.0425 20.1837 15.1832C20.1269 16.2353 19.9512 16.8084 19.8032 17.1889C19.5985 17.6964 19.3701 18.0511 18.993 18.435C18.6417 18.7917 18.2163 19.0667 17.7469 19.2405C17.3711 19.3892 16.79 19.5649 15.7337 19.6142C14.587 19.6628 14.2491 19.677 11.3554 19.677C8.46179 19.677 8.12458 19.6628 6.97645 19.6101C5.92428 19.5534 5.3438 19.3777 4.96334 19.2297C4.44975 19.0249 4.09768 18.7965 3.7206 18.4194C3.34014 18.039 3.09822 17.6768 2.9117 17.1733C2.76033 16.7976 2.58733 16.2164 2.53125 15.1602C2.49273 14.0269 2.47448 13.6755 2.47448 10.7954C2.47448 7.91663 2.49273 7.56456 2.53125 6.4171C2.58733 5.36087 2.76033 4.78106 2.9117 4.40399C3.09822 3.88972 3.34082 3.53833 3.7206 3.15787C4.097 2.78146 4.44975 2.53819 4.96334 2.34762C5.3438 2.19963 5.91009 2.02393 6.96632 1.97122C8.1131 1.93 8.45098 1.91513 11.3406 1.91513L11.3852 1.94621ZM11.3852 5.26221C10.6562 5.26194 9.93441 5.40532 9.26093 5.68414C8.58744 5.96297 7.97549 6.37177 7.46007 6.8872C6.94464 7.40263 6.53584 8.01457 6.25701 8.68806C5.97819 9.36155 5.83481 10.0834 5.83508 10.8123C5.83481 11.5412 5.97819 12.2631 6.25701 12.9365C6.53584 13.61 6.94464 14.222 7.46007 14.7374C7.97549 15.2528 8.58744 15.6616 9.26093 15.9405C9.93441 16.2193 10.6562 16.3627 11.3852 16.3624C12.1141 16.3627 12.8359 16.2193 13.5094 15.9405C14.1829 15.6616 14.7948 15.2528 15.3103 14.7374C15.8257 14.222 16.2345 13.61 16.5133 12.9365C16.7921 12.2631 16.9355 11.5412 16.9353 10.8123C16.9355 10.0834 16.7921 9.36155 16.5133 8.68806C16.2345 8.01457 15.8257 7.40263 15.3103 6.8872C14.7948 6.37177 14.1829 5.96297 13.5094 5.68414C12.8359 5.40532 12.1141 5.26194 11.3852 5.26221ZM11.3852 14.4162C9.393 14.4162 7.78129 12.8045 7.78129 10.8123C7.78129 8.82013 9.393 7.20843 11.3852 7.20843C13.3773 7.20843 14.989 8.82013 14.989 10.8123C14.989 12.8045 13.3773 14.4162 11.3852 14.4162ZM18.4564 5.04056C18.4561 5.38497 18.319 5.71516 18.0753 5.95857C17.8317 6.20198 17.5013 6.33871 17.1569 6.33871C16.9866 6.33871 16.818 6.30517 16.6606 6.24C16.5033 6.17483 16.3604 6.07931 16.2399 5.95889C16.1195 5.83847 16.024 5.69551 15.9588 5.53817C15.8937 5.38084 15.8601 5.21221 15.8601 5.04191C15.8601 4.87161 15.8937 4.70298 15.9588 4.54565C16.024 4.38831 16.1195 4.24535 16.2399 4.12493C16.3604 4.00452 16.5033 3.90899 16.6606 3.84382C16.818 3.77865 16.9866 3.74511 17.1569 3.74511C17.8712 3.74511 18.4564 4.32627 18.4564 5.04056Z" fill="white"/>
</svg>
