<svg width="22" height="22" viewBox="0 0 22 22" fill="none" xmlns="http://www.w3.org/2000/svg">
<path fill-rule="evenodd" clip-rule="evenodd" d="M0.900879 2.55676C0.900879 2.11759 1.07534 1.69641 1.38587 1.38588C1.69641 1.07534 2.11759 0.900881 2.55676 0.900881H19.0633C19.2809 0.900526 19.4965 0.9431 19.6976 1.02617C19.8988 1.10924 20.0816 1.23116 20.2356 1.38497C20.3896 1.53878 20.5117 1.72145 20.595 1.92252C20.6783 2.1236 20.7211 2.33912 20.7209 2.55676V19.0633C20.7212 19.281 20.6785 19.4965 20.5953 19.6977C20.5122 19.8989 20.3902 20.0817 20.2363 20.2356C20.0824 20.3896 19.8997 20.5117 19.6985 20.595C19.4974 20.6783 19.2819 20.7211 19.0642 20.721H2.55676C2.33923 20.721 2.12383 20.6781 1.92287 20.5948C1.72191 20.5115 1.53933 20.3895 1.38556 20.2356C1.23178 20.0818 1.10983 19.8991 1.02667 19.6981C0.943504 19.4971 0.900761 19.2817 0.900879 19.0642V2.55676ZM8.74602 8.45773H11.4298V9.8055C11.8172 9.03071 12.8082 8.33341 14.2974 8.33341C17.1524 8.33341 17.829 9.87667 17.829 12.7082V17.9533H14.9398V13.3533C14.9398 11.7407 14.5524 10.8307 13.5686 10.8307C12.2037 10.8307 11.6362 11.8118 11.6362 13.3533V17.9533H8.74602V8.45773ZM3.79101 17.8299H6.68113V8.33341H3.79101V17.829V17.8299ZM7.09465 5.23607C7.1001 5.48353 7.05607 5.72958 6.96514 5.95979C6.8742 6.18999 6.73821 6.39972 6.56512 6.57666C6.39204 6.75359 6.18536 6.89418 5.95721 6.99015C5.72906 7.08613 5.48404 7.13557 5.23652 7.13557C4.989 7.13557 4.74398 7.08613 4.51583 6.99015C4.28768 6.89418 4.081 6.75359 3.90792 6.57666C3.73483 6.39972 3.59883 6.18999 3.5079 5.95979C3.41697 5.72958 3.37294 5.48353 3.37839 5.23607C3.38908 4.75035 3.58955 4.28812 3.93685 3.94838C4.28415 3.60865 4.75068 3.41841 5.23652 3.41841C5.72236 3.41841 6.18889 3.60865 6.53619 3.94838C6.88349 4.28812 7.08396 4.75035 7.09465 5.23607V5.23607Z" fill="white"/>
</svg>
