<svg width="52" height="51" viewBox="0 0 52 51" fill="none" xmlns="http://www.w3.org/2000/svg">
<path opacity="0.5" d="M25.699 47.5656L4.14841 12.6651C3.65573 11.8667 3.39315 10.9477 3.38959 10.0095C3.38604 9.07126 3.64167 8.15029 4.12828 7.34814C4.6149 6.54599 5.3136 5.8938 6.14733 5.46351C6.98106 5.03321 7.91742 4.84153 8.85317 4.90962L43.7792 7.45095C44.5832 7.50948 45.3619 7.75803 46.0514 8.17616C46.7406 8.59432 47.3208 9.17011 47.7443 9.85619C48.1677 10.5423 48.4223 11.3191 48.487 12.1227C48.5516 12.9263 48.4246 13.7339 48.1165 14.4788L34.7323 46.8387C34.3725 47.7035 33.7813 48.4525 33.0236 49.003C32.2659 49.5538 31.3712 49.8847 30.4375 49.9599C29.5039 50.035 28.5677 49.8514 27.7317 49.429C26.8956 49.0065 26.1923 48.3618 25.699 47.5656Z" fill="#2BD67B"/>
<path d="M34.0876 41.9805L2.38911 20.115C-0.823143 17.8992 0.26881 13.2858 4.2744 12.2009L37.9642 3.05713C38.6778 2.79962 39.4425 2.71603 40.1951 2.8133C40.9474 2.91056 41.6658 3.18588 42.2906 3.61641C42.9152 4.04694 43.4283 4.62025 43.787 5.28876C44.1457 5.95727 44.3399 6.70171 44.3533 7.46028L42.3567 38.4679C42.1199 42.1484 37.2998 44.1962 34.0876 41.9805Z" fill="#0A2156"/>
<path d="M20.113 46.3768L8.85398 6.93435C8.59673 6.0321 8.59368 5.07631 8.84514 4.17242C9.09659 3.26853 9.5928 2.45164 10.279 1.81184C10.9653 1.17205 11.8148 0.734202 12.7341 0.54658C13.6534 0.358959 14.6066 0.428862 15.4887 0.74859L48.4108 12.6823C49.1687 12.9571 49.8507 13.4078 50.4006 13.9975C50.9503 14.5872 51.3523 15.299 51.5735 16.0743C51.7945 16.8496 51.8286 17.6664 51.6725 18.4573C51.5164 19.2483 51.1748 19.991 50.6759 20.6242L29.0041 48.1312C28.4229 48.8657 27.6505 49.4259 26.7717 49.7499C25.8929 50.0741 24.9419 50.1496 24.023 49.9683C23.104 49.7869 22.2529 49.3559 21.5631 48.7223C20.8732 48.0886 20.3716 47.277 20.113 46.3768Z" fill="#4070F4"/>
</svg>
