<svg width="19" height="20" viewBox="0 0 19 20" fill="none" xmlns="http://www.w3.org/2000/svg">
<g id="apto">
<g id="icon-paths">
<path id="Path" fill-rule="evenodd" clip-rule="evenodd" d="M3.00125 3.9975H10.5044C10.9188 3.9975 11.2547 4.33343 11.2547 4.74781V16.0025H3.00125C2.58686 16.0025 2.25094 15.6666 2.25094 15.2522V4.74781C2.25094 4.33343 2.58686 3.9975 3.00125 3.9975Z" stroke="white" stroke-width="1.5" stroke-linecap="round" stroke-linejoin="round"/>
<path id="Path_2" fill-rule="evenodd" clip-rule="evenodd" d="M11.2547 6.99875H15.0062C15.4206 6.99875 15.7566 7.33468 15.7566 7.74906V15.2522C15.7566 15.6666 15.4206 16.0025 15.0062 16.0025H11.2547V6.99875Z" stroke="white" stroke-width="1.5" stroke-linecap="round" stroke-linejoin="round"/>
<path id="Path_3" d="M5.25219 6.90496C5.20039 6.90496 5.1584 6.94695 5.1584 6.99875C5.1584 7.05055 5.20039 7.09254 5.25219 7.09254C5.30399 7.09254 5.34598 7.05055 5.34598 6.99875C5.34598 6.94695 5.30399 6.90496 5.25219 6.90496" stroke="white" stroke-width="1.5" stroke-linecap="round" stroke-linejoin="round"/>
<path id="Path_4" d="M8.25344 6.90496C8.20164 6.90496 8.15965 6.94695 8.15965 6.99875C8.15965 7.05055 8.20164 7.09254 8.25344 7.09254C8.30524 7.09254 8.34723 7.05055 8.34723 6.99875C8.34723 6.94695 8.30524 6.90496 8.25344 6.90496" stroke="white" stroke-width="1.5" stroke-linecap="round" stroke-linejoin="round"/>
<path id="Path_5" d="M5.25219 9.90621C5.20039 9.90621 5.1584 9.9482 5.1584 10C5.1584 10.0518 5.20039 10.0938 5.25219 10.0938C5.30399 10.0938 5.34598 10.0518 5.34598 10C5.34598 9.9482 5.30399 9.90621 5.25219 9.90621" stroke="white" stroke-width="1.5" stroke-linecap="round" stroke-linejoin="round"/>
<path id="Path_6" d="M8.25344 9.90621C8.20164 9.90621 8.15965 9.9482 8.15965 10C8.15965 10.0518 8.20164 10.0938 8.25344 10.0938C8.30524 10.0938 8.34723 10.0518 8.34723 10C8.34723 9.9482 8.30524 9.90621 8.25344 9.90621" stroke="white" stroke-width="1.5" stroke-linecap="round" stroke-linejoin="round"/>
<path id="Path_7" d="M5.25219 12.9075C5.20039 12.9075 5.1584 12.9495 5.1584 13.0013C5.1584 13.053 5.20039 13.095 5.25219 13.095C5.30399 13.095 5.34598 13.053 5.34598 13.0013C5.34598 12.9495 5.30399 12.9075 5.25219 12.9075" stroke="white" stroke-width="1.5" stroke-linecap="round" stroke-linejoin="round"/>
<path id="Path_8" d="M8.25344 12.9075C8.20164 12.9075 8.15965 12.9495 8.15965 13.0013C8.15965 13.053 8.20164 13.095 8.25344 13.095C8.30524 13.095 8.34723 13.053 8.34723 13.0013C8.34723 12.9495 8.30524 12.9075 8.25344 12.9075" stroke="white" stroke-width="1.5" stroke-linecap="round" stroke-linejoin="round"/>
<path id="Path_9" d="M13.5056 9.90621C13.4538 9.90621 13.4118 9.9482 13.4118 10C13.4118 10.0518 13.4538 10.0938 13.5056 10.0938C13.5574 10.0938 13.5994 10.0518 13.5994 10C13.5994 9.9482 13.5574 9.90621 13.5056 9.90621" stroke="white" stroke-width="1.5" stroke-linecap="round" stroke-linejoin="round"/>
<path id="Path_10" d="M13.5056 12.9075C13.4538 12.9075 13.4118 12.9495 13.4118 13.0013C13.4118 13.053 13.4538 13.095 13.5056 13.095C13.5574 13.095 13.5994 13.053 13.5994 13.0013C13.5994 12.9495 13.5574 12.9075 13.5056 12.9075" stroke="white" stroke-width="1.5" stroke-linecap="round" stroke-linejoin="round"/>
</g>
</g>
</svg>
