<svg width="18" height="18" viewBox="0 0 18 18" fill="none" xmlns="http://www.w3.org/2000/svg">
<path fill-rule="evenodd" clip-rule="evenodd" d="M2.99749 7.87453H12.0012C12.4156 7.87453 12.7516 8.21045 12.7516 8.62484V10.8758C12.7516 13.3621 10.736 15.3777 8.24968 15.3777H6.74905C4.26274 15.3777 2.24718 13.3621 2.24718 10.8758V8.62484C2.24718 8.21045 2.5831 7.87453 2.99749 7.87453Z" stroke="#9EA5B8" stroke-width="1.5" stroke-linecap="round" stroke-linejoin="round"/>
<path d="M10.1255 5.62359C9.62525 5.09837 9.62525 4.27303 10.1255 3.74781C10.6257 3.22259 10.6257 2.39724 10.1255 1.87202" stroke="#9EA5B8" stroke-width="1.5" stroke-linecap="round" stroke-linejoin="round"/>
<path d="M7.49938 5.62359C6.99917 5.09837 6.99917 4.27303 7.49938 3.74781C7.99958 3.22259 7.99958 2.39724 7.49938 1.87202" stroke="#9EA5B8" stroke-width="1.5" stroke-linecap="round" stroke-linejoin="round"/>
<path d="M4.87328 5.62359C4.37307 5.09837 4.37307 4.27302 4.87328 3.74781C5.37349 3.22259 5.37349 2.39724 4.87328 1.87202" stroke="#9EA5B8" stroke-width="1.5" stroke-linecap="round" stroke-linejoin="round"/>
<path d="M12.0971 13.213L13.482 12.896C14.8107 12.592 15.7528 11.4099 15.7528 10.047V10.047C15.7528 9.47079 15.5239 8.91822 15.1165 8.51082C14.7091 8.10341 14.1565 7.87453 13.5804 7.87453H11.6261" stroke="#9EA5B8" stroke-width="1.5" stroke-linecap="round" stroke-linejoin="round"/>
</svg>
