<svg width="19" height="20" viewBox="0 0 19 20" fill="none" xmlns="http://www.w3.org/2000/svg">
<g id="hotel">
<g id="icon-paths">
<path id="Path" d="M6.0025 16.7528V3.9975C6.0025 3.58311 6.33842 3.24719 6.75281 3.24719H11.2547C11.6691 3.24719 12.005 3.58311 12.005 3.9975V16.7528" stroke="white" stroke-width="1.5" stroke-linecap="round" stroke-linejoin="round"/>
<path id="Path_2" d="M15.7566 16.7528V6.93347C15.7566 6.55514 15.4499 6.24844 15.0715 6.24844H12.005" stroke="white" stroke-width="1.5" stroke-linecap="round" stroke-linejoin="round"/>
<path id="Path_3" d="M6.0025 6.24844H2.93597C2.55764 6.24844 2.25094 6.55514 2.25094 6.93347V16.7528" stroke="white" stroke-width="1.5" stroke-linecap="round" stroke-linejoin="round"/>
<path id="Path_4" d="M12.005 8.49938H13.8808" stroke="white" stroke-width="1.5" stroke-linecap="round" stroke-linejoin="round"/>
<path id="Path_5" d="M12.005 10.7503H13.8808" stroke="white" stroke-width="1.5" stroke-linecap="round" stroke-linejoin="round"/>
<path id="Path_6" d="M12.005 13.0013H13.8808" stroke="white" stroke-width="1.5" stroke-linecap="round" stroke-linejoin="round"/>
<path id="Path_7" d="M4.12672 8.49938H6.0025" stroke="white" stroke-width="1.5" stroke-linecap="round" stroke-linejoin="round"/>
<path id="Path_8" d="M4.12672 10.7503H6.0025" stroke="white" stroke-width="1.5" stroke-linecap="round" stroke-linejoin="round"/>
<path id="Path_9" d="M4.12672 13.0013H6.0025" stroke="white" stroke-width="1.5" stroke-linecap="round" stroke-linejoin="round"/>
<path id="Path_10" d="M7.87828 10.7503H10.1292" stroke="white" stroke-width="1.5" stroke-linecap="round" stroke-linejoin="round"/>
<path id="Path_11" d="M7.87828 13.0013H10.1292" stroke="white" stroke-width="1.5" stroke-linecap="round" stroke-linejoin="round"/>
<path id="Path_12" d="M7.87828 8.49938H10.1292" stroke="white" stroke-width="1.5" stroke-linecap="round" stroke-linejoin="round"/>
<path id="Path_13" d="M7.87828 6.24844H10.1292" stroke="white" stroke-width="1.5" stroke-linecap="round" stroke-linejoin="round"/>
<path id="Path_14" d="M9.00375 15.2522V16.7528" stroke="white" stroke-width="1.5" stroke-linecap="round" stroke-linejoin="round"/>
<path id="Path_15" d="M16.5069 16.7528H1.50063" stroke="white" stroke-width="1.5" stroke-linecap="round" stroke-linejoin="round"/>
</g>
</g>
</svg>
